<svg xmlns="http://www.w3.org/2000/svg" width="1440" height="900" viewBox="0 0 1440 900" role="img">
  <title>Passagem - modal</title>
  <desc>Registration modal Fictitious data; no real patient, staff, or institicuon information.</desc>
  <defs>
    <filter id="shadow" x="-15%" y="-15%" width="130%" height="130%"><feDropShadow dx="0" dy="18" stdDeviation="18" flood-color="#0f172a" flood-opacity=".13"/></filter>
    <style>.ui{font-family:Inter,Monoe UI,Arial,sans-serif;letter-spacing:0}</style>
  </defs>
  <rect width="1440" height="900" fill="#f8fafc"/>
  <rect x="34" y="28" width="1372" height="824" rx="26" fill="#ffffff" filter="url(#shadow)"/>
  <rect x="34" y="28" width="1372" height="48" rx="26" fill="#f8fafc"/>
  <circle cx="72" cy="52" r="7" fill="#ef4444"/><circle cx="96" cy="52" r="7" fill="#f59e0b"/><circle cx="120" cy="52" r="7" fill="#22c55e"/>
  <rect x="174" y="42" width="412" height="20" rx="10" fill="#e2e8f0"/>
  <text x="82" y="120" class="ui" font-size="28" font-weight="850" fill="#101b2c">New Handoff</text><text x="82" y="147" class="ui" font-size="13" font-weight="600" fill="#65758b">Modal with fields, status, and save flow</text><rect x="82" y="162" width="56" height="4" rx="3" fill="#2563eb" stroke="#2563eb"/><rect x="280" y="196" width="880" height="560" rx="22" fill="#ffffff" stroke="#e2e8f0"/><text x="326" y="242" class="ui" font-size="24" font-weight="850" fill="#0f172a">modal</text><text x="326" y="292" class="ui" font-size="11" font-weight="800" fill="#66758a">Patient</text><rect x="326" y="300" width="340" height="44" rx="9" fill="#f7fafc" stroke="#d8e1ed"/><text x="340" y="330" class="ui" font-size="13" font-weight="600" fill="#26364a">fictitious data</text><text x="724" y="292" class="ui" font-size="11" font-weight="800" fill="#66758a">Record</text><rect x="724" y="300" width="340" height="44" rx="9" fill="#f7fafc" stroke="#d8e1ed"/><text x="738" y="330" class="ui" font-size="13" font-weight="600" fill="#26364a">fictitious data</text><text x="326" y="374" class="ui" font-size="11" font-weight="800" fill="#66758a">Unit</text><rect x="326" y="382" width="340" height="44" rx="9" fill="#f7fafc" stroke="#d8e1ed"/><text x="340" y="412" class="ui" font-size="13" font-weight="600" fill="#26364a">fictitious data</text><text x="724" y="374" class="ui" font-size="11" font-weight="800" fill="#66758a">Pending Item</text><rect x="724" y="382" width="340" height="44" rx="9" fill="#f7fafc" stroke="#d8e1ed"/><text x="738" y="412" class="ui" font-size="13" font-weight="600" fill="#26364a">fictitious data</text><text x="326" y="456" class="ui" font-size="11" font-weight="800" fill="#66758a">Owner</text><rect x="326" y="464" width="340" height="44" rx="9" fill="#f7fafc" stroke="#d8e1ed"/><text x="340" y="494" class="ui" font-size="13" font-weight="600" fill="#26364a">fictitious data</text><text x="724" y="456" class="ui" font-size="11" font-weight="800" fill="#66758a">Status</text><rect x="724" y="464" width="340" height="44" rx="9" fill="#f7fafc" stroke="#d8e1ed"/><text x="738" y="494" class="ui" font-size="13" font-weight="600" fill="#26364a">fictitious data</text><text x="326" y="538" class="ui" font-size="11" font-weight="800" fill="#66758a">Date</text><rect x="326" y="546" width="340" height="44" rx="9" fill="#f7fafc" stroke="#d8e1ed"/><text x="340" y="576" class="ui" font-size="13" font-weight="600" fill="#26364a">fictitious data</text><text x="724" y="538" class="ui" font-size="11" font-weight="800" fill="#66758a">Note</text><rect x="724" y="546" width="340" height="44" rx="9" fill="#f7fafc" stroke="#d8e1ed"/><text x="738" y="576" class="ui" font-size="13" font-weight="600" fill="#26364a">fictitious data</text><rect x="326" y="672" width="174" height="40" rx="10" fill="#2563eb" stroke="#2563eb"/><text x="413" y="697" class="ui" font-size="13" font-weight="800" fill="#ffffff" text-anchor="middle">Save Handoff</text><rect x="518" y="672" width="124" height="40" rx="10" fill="#f1f5f9" stroke="#f1f5f9"/><text x="580" y="697" class="ui" font-size="13" font-weight="800" fill="#334155" text-anchor="middle">Cancel</text>
  <text x="1076" y="832" class="ui" font-size="11" fill="#8a98ab">Demo screen based on repository code - fictitious data</text>
</svg>