<svg xmlns="http://www.w3.org/2000/svg" width="1440" height="900" viewBox="0 0 1440 900" role="img">
  <title>Passagem - lista</title>
  <desc>Handoff list and filters Fictitious data; no real patient, staff, or institicuon information.</desc>
  <defs>
    <filter id="shadow" x="-15%" y="-15%" width="130%" height="130%"><feDropShadow dx="0" dy="18" stdDeviation="18" flood-color="#0f172a" flood-opacity=".13"/></filter>
    <style>.ui{font-family:Inter,Monoe UI,Arial,sans-serif;letter-spacing:0}</style>
  </defs>
  <rect width="1440" height="900" fill="#f8fafc"/>
  <rect x="34" y="28" width="1372" height="824" rx="26" fill="#ffffff" filter="url(#shadow)"/>
  <rect x="34" y="28" width="1372" height="48" rx="26" fill="#f8fafc"/>
  <circle cx="72" cy="52" r="7" fill="#ef4444"/><circle cx="96" cy="52" r="7" fill="#f59e0b"/><circle cx="120" cy="52" r="7" fill="#22c55e"/>
  <rect x="174" y="42" width="412" height="20" rx="10" fill="#e2e8f0"/>
  <text x="82" y="120" class="ui" font-size="28" font-weight="850" fill="#101b2c">Shift Handoff</text><text x="82" y="147" class="ui" font-size="13" font-weight="600" fill="#65758b">Filters, dashboard, and shift list</text><rect x="82" y="162" width="56" height="4" rx="3" fill="#2563eb" stroke="#2563eb"/><rect x="82" y="208" width="1182" height="74" rx="16" fill="#ffffff" stroke="#e2e8f0"/><rect x="112" y="230" width="138" height="30" rx="15" fill="#2563eb" stroke="#2563eb"/><text x="181" y="250" class="ui" font-size="12" font-weight="800" fill="#ffffff" text-anchor="middle">newBtn</text><rect x="270" y="230" width="138" height="30" rx="15" fill="#2563eb" stroke="#2563eb"/><text x="339" y="250" class="ui" font-size="12" font-weight="800" fill="#ffffff" text-anchor="middle">dashBtn</text><rect x="428" y="230" width="138" height="30" rx="15" fill="#f1f5f9" stroke="#f1f5f9"/><text x="497" y="250" class="ui" font-size="12" font-weight="800" fill="#334155" text-anchor="middle">filters</text><rect x="586" y="230" width="138" height="30" rx="15" fill="#f1f5f9" stroke="#f1f5f9"/><text x="655" y="250" class="ui" font-size="12" font-weight="800" fill="#334155" text-anchor="middle">Open</text><rect x="744" y="230" width="138" height="30" rx="15" fill="#f1f5f9" stroke="#f1f5f9"/><text x="813" y="250" class="ui" font-size="12" font-weight="800" fill="#334155" text-anchor="middle">In Progress</text><rect x="902" y="230" width="138" height="30" rx="15" fill="#f1f5f9" stroke="#f1f5f9"/><text x="971" y="250" class="ui" font-size="12" font-weight="800" fill="#334155" text-anchor="middle">Completed</text><rect x="1060" y="230" width="138" height="30" rx="15" fill="#f1f5f9" stroke="#f1f5f9"/><text x="1129" y="250" class="ui" font-size="12" font-weight="800" fill="#334155" text-anchor="middle">Canceled</text><rect x="82" y="328" width="1182" height="188" rx="12" fill="#ffffff" stroke="#dce5ef"/><text x="100" y="358" class="ui" font-size="16" font-weight="800" fill="#142033">Handoff list</text><rect x="98" y="372" width="1150" height="34" rx="8" fill="#f2f6fa" stroke="#f2f6fa"/><text x="110" y="394" class="ui" font-size="11" font-weight="800" fill="#617187">Turno</text><text x="392" y="394" class="ui" font-size="11" font-weight="800" fill="#617187">Pending Item</text><text x="674" y="394" class="ui" font-size="11" font-weight="800" fill="#617187">Owner</text><text x="956" y="394" class="ui" font-size="11" font-weight="800" fill="#617187">Status</text><line x1="100" y1="408" x2="1246" y2="408" stroke="#e7edf4" stroke-width="1" stroke-linecap="round"/><text x="110" y="430" class="ui" font-size="12" font-weight="600" fill="#2b3b4f">Morning</text><text x="392" y="430" class="ui" font-size="12" font-weight="600" fill="#2b3b4f">Pending exam</text><text x="674" y="430" class="ui" font-size="12" font-weight="600" fill="#2b3b4f">Team A</text><rect x="956" y="410" width="112" height="26" rx="13" fill="#e6f7ef" stroke="#e6f7ef"/><text x="1012" y="428" class="ui" font-size="12" font-weight="800" fill="#13704c" text-anchor="middle">Open</text><line x1="100" y1="450" x2="1246" y2="450" stroke="#e7edf4" stroke-width="1" stroke-linecap="round"/><text x="110" y="472" class="ui" font-size="12" font-weight="600" fill="#2b3b4f">Tarde</text><text x="392" y="472" class="ui" font-size="12" font-weight="600" fill="#2b3b4f">Family contact</text><text x="674" y="472" class="ui" font-size="12" font-weight="600" fill="#2b3b4f">Team B</text><rect x="956" y="452" width="112" height="26" rx="13" fill="#fff6df" stroke="#fff6df"/><text x="1012" y="470" class="ui" font-size="12" font-weight="800" fill="#9a6208" text-anchor="middle">In Progress</text><line x1="100" y1="492" x2="1246" y2="492" stroke="#e7edf4" stroke-width="1" stroke-linecap="round"/><text x="110" y="514" class="ui" font-size="12" font-weight="600" fill="#2b3b4f">Noite</text><text x="392" y="514" class="ui" font-size="12" font-weight="600" fill="#2b3b4f">Planned discharge</text><text x="674" y="514" class="ui" font-size="12" font-weight="600" fill="#2b3b4f">Team C</text><rect x="956" y="494" width="112" height="26" rx="13" fill="#e6f7ef" stroke="#e6f7ef"/><text x="1012" y="512" class="ui" font-size="12" font-weight="800" fill="#13704c" text-anchor="middle">Completed</text><rect x="82" y="630" width="1182" height="150" rx="12" fill="#ffffff" stroke="#dce5ef"/><text x="100" y="660" class="ui" font-size="15" font-weight="800" fill="#142033">Summary by Status</text><rect x="112" y="701" width="263" height="45" rx="5" fill="#2563eb" stroke="#2563eb" opacity="0.52"/><text x="243" y="766" class="ui" font-size="10" font-weight="700" fill="#738196" text-anchor="middle">Open</text><rect x="393" y="720" width="263" height="26" rx="5" fill="#2563eb" stroke="#2563eb" opacity="0.59"/><text x="524" y="766" class="ui" font-size="10" font-weight="700" fill="#738196" text-anchor="middle">And</text><rect x="674" y="674" width="263" height="72" rx="5" fill="#2563eb" stroke="#2563eb" opacity="0.66"/><text x="805" y="766" class="ui" font-size="10" font-weight="700" fill="#738196" text-anchor="middle">Conc</text><rect x="955" y="733" width="263" height="13" rx="5" fill="#2563eb" stroke="#2563eb" opacity="0.73"/><text x="1086" y="766" class="ui" font-size="10" font-weight="700" fill="#738196" text-anchor="middle">Canc</text><line x1="106" y1="746" x2="1240" y2="746" stroke="#d6dfeb" stroke-width="1" stroke-linecap="round"/>
  <text x="1076" y="832" class="ui" font-size="11" fill="#8a98ab">Demo screen based on repository code - fictitious data</text>
</svg>