<svg xmlns="http://www.w3.org/2000/svg" width="1440" height="900" viewBox="0 0 1440 900" role="img">
  <title>Passagem - dashboard</title>
  <desc>Shift Dashboard Fictitious data; no real patient, staff, or institicuon information.</desc>
  <defs>
    <filter id="shadow" x="-15%" y="-15%" width="130%" height="130%"><feDropShadow dx="0" dy="18" stdDeviation="18" flood-color="#0f172a" flood-opacity=".13"/></filter>
    <style>.ui{font-family:Inter,Monoe UI,Arial,sans-serif;letter-spacing:0}</style>
  </defs>
  <rect width="1440" height="900" fill="#f8fafc"/>
  <rect x="34" y="28" width="1372" height="824" rx="26" fill="#ffffff" filter="url(#shadow)"/>
  <rect x="34" y="28" width="1372" height="48" rx="26" fill="#f8fafc"/>
  <circle cx="72" cy="52" r="7" fill="#ef4444"/><circle cx="96" cy="52" r="7" fill="#f59e0b"/><circle cx="120" cy="52" r="7" fill="#22c55e"/>
  <rect x="174" y="42" width="412" height="20" rx="10" fill="#e2e8f0"/>
  <text x="82" y="120" class="ui" font-size="28" font-weight="850" fill="#101b2c">Shift Dashboard</text><text x="82" y="147" class="ui" font-size="13" font-weight="600" fill="#65758b">Indicators, pending items, and history</text><rect x="82" y="162" width="56" height="4" rx="3" fill="#2563eb" stroke="#2563eb"/><rect x="82" y="214" width="270" height="98" rx="14" fill="#eff6ff" stroke="#eff6ff"/><text x="100" y="244" class="ui" font-size="12" font-weight="800" fill="#2563eb">Open</text><text x="100" y="282" class="ui" font-size="30" font-weight="850" fill="#2563eb">07</text><text x="334" y="282" class="ui" font-size="11" font-weight="700" fill="#2563eb" text-anchor="end">queue</text><rect x="380" y="214" width="270" height="98" rx="14" fill="#fff7ed" stroke="#fff7ed"/><text x="398" y="244" class="ui" font-size="12" font-weight="800" fill="#c2410c">In Progress</text><text x="398" y="282" class="ui" font-size="30" font-weight="850" fill="#c2410c">04</text><text x="632" y="282" class="ui" font-size="11" font-weight="700" fill="#c2410c" text-anchor="end">shift</text><rect x="678" y="214" width="270" height="98" rx="14" fill="#ecfdf5" stroke="#ecfdf5"/><text x="696" y="244" class="ui" font-size="12" font-weight="800" fill="#047857">Completed</text><text x="696" y="282" class="ui" font-size="30" font-weight="850" fill="#047857">11</text><text x="930" y="282" class="ui" font-size="11" font-weight="700" fill="#047857" text-anchor="end">today</text><rect x="976" y="214" width="270" height="98" rx="14" fill="#fee2e2" stroke="#fee2e2"/><text x="994" y="244" class="ui" font-size="12" font-weight="800" fill="#b91c1c">Canceleds</text><text x="994" y="282" class="ui" font-size="30" font-weight="850" fill="#b91c1c">02</text><text x="1228" y="282" class="ui" font-size="11" font-weight="700" fill="#b91c1c" text-anchor="end">dia</text><rect x="82" y="366" width="560" height="220" rx="12" fill="#ffffff" stroke="#dce5ef"/><text x="100" y="396" class="ui" font-size="15" font-weight="800" fill="#142033">Shift Trend</text><line x1="104" y1="552" x2="620" y2="552" stroke="#d6dfeb" stroke-width="1" stroke-linecap="round"/><polyline points="112,552 212,493 312,533 412,434 512,474 612,414" fill="none" stroke="#2563eb" stroke-width="5" stroke-linecap="round" stroke-linejoin="round"/><circle cx="412" cy="434" r="6" fill="#2563eb" stroke="none" stroke-width="1"/><circle cx="512" cy="474" r="6" fill="#2563eb" stroke="none" stroke-width="1"/><circle cx="612" cy="414" r="6" fill="#2563eb" stroke="none" stroke-width="1"/><rect x="684" y="366" width="580" height="188" rx="12" fill="#ffffff" stroke="#dce5ef"/><text x="702" y="396" class="ui" font-size="16" font-weight="800" fill="#142033">Summary by Unit</text><rect x="700" y="410" width="548" height="34" rx="8" fill="#f2f6fa" stroke="#f2f6fa"/><text x="712" y="432" class="ui" font-size="11" font-weight="800" fill="#617187">Unit</text><text x="844" y="432" class="ui" font-size="11" font-weight="800" fill="#617187">Open</text><text x="976" y="432" class="ui" font-size="11" font-weight="800" fill="#617187">Team</text><text x="1108" y="432" class="ui" font-size="11" font-weight="800" fill="#617187">Status</text><line x1="702" y1="446" x2="1246" y2="446" stroke="#e7edf4" stroke-width="1" stroke-linecap="round"/><text x="712" y="468" class="ui" font-size="12" font-weight="600" fill="#2b3b4f">ICU</text><text x="844" y="468" class="ui" font-size="12" font-weight="600" fill="#2b3b4f">3</text><text x="976" y="468" class="ui" font-size="12" font-weight="600" fill="#2b3b4f">A</text><rect x="1108" y="448" width="112" height="26" rx="13" fill="#e6f7ef" stroke="#e6f7ef"/><text x="1164" y="466" class="ui" font-size="12" font-weight="800" fill="#13704c" text-anchor="middle">Open</text><line x1="702" y1="488" x2="1246" y2="488" stroke="#e7edf4" stroke-width="1" stroke-linecap="round"/><text x="712" y="510" class="ui" font-size="12" font-weight="600" fill="#2b3b4f">Clinic</text><text x="844" y="510" class="ui" font-size="12" font-weight="600" fill="#2b3b4f">2</text><text x="976" y="510" class="ui" font-size="12" font-weight="600" fill="#2b3b4f">B</text><rect x="1108" y="490" width="112" height="26" rx="13" fill="#e6f7ef" stroke="#e6f7ef"/><text x="1164" y="508" class="ui" font-size="12" font-weight="800" fill="#13704c" text-anchor="middle">OK</text><line x1="702" y1="530" x2="1246" y2="530" stroke="#e7edf4" stroke-width="1" stroke-linecap="round"/><text x="712" y="552" class="ui" font-size="12" font-weight="600" fill="#2b3b4f">PA</text><text x="844" y="552" class="ui" font-size="12" font-weight="600" fill="#2b3b4f">2</text><text x="976" y="552" class="ui" font-size="12" font-weight="600" fill="#2b3b4f">C</text><rect x="1108" y="532" width="112" height="26" rx="13" fill="#fff6df" stroke="#fff6df"/><text x="1164" y="550" class="ui" font-size="12" font-weight="800" fill="#9a6208" text-anchor="middle">Andamento</text>
  <text x="1076" y="832" class="ui" font-size="11" fill="#8a98ab">Demo screen based on repository code - fictitious data</text>
</svg>